<svg xmlns="http://www.w3.org/2000/svg" viewBox="0 0 569.47 93.22"><defs><style>.cls-1{fill:#ececec;}.cls-2{fill:#a7f2d3;}.cls-3{fill:#049868;}</style></defs><g id="Layer_2" data-name="Layer 2"><g id="Layer_1-2" data-name="Layer 1"><path class="cls-1" d="M179.63,81.48v-58h9.9V34.77l-1.61-1a17.39,17.39,0,0,1,6.94-8.56,20.43,20.43,0,0,1,11.25-3.07A22.13,22.13,0,0,1,217.25,25,20.74,20.74,0,0,1,225,32.72a22,22,0,0,1,2.85,11.2V81.48H217.73V47.14A17.7,17.7,0,0,0,216,39a12.39,12.39,0,0,0-4.9-5.16,15.34,15.34,0,0,0-14.53,0,13.06,13.06,0,0,0-5,5.22,16.88,16.88,0,0,0-1.82,8.12V81.48Z"/><path class="cls-1" d="M264.55,82.77a28.63,28.63,0,0,1-15-4,28.21,28.21,0,0,1-10.38-10.93,32.09,32.09,0,0,1-3.77-15.55,31.4,31.4,0,0,1,3.77-15.5A28.72,28.72,0,0,1,249.27,26.1a28.87,28.87,0,0,1,25.88-1.61,25.51,25.51,0,0,1,8.5,6.24A28.32,28.32,0,0,1,289,39.66a29.4,29.4,0,0,1,1.88,10.39,22.92,22.92,0,0,1-.16,2.69c-.11.93-.24,1.87-.38,2.8H242.81V46.82h41.76l-4.84,3.88a16.15,16.15,0,0,0-1-10,16.25,16.25,0,0,0-15.07-9.58,17.11,17.11,0,0,0-9.26,2.63,17.6,17.6,0,0,0-6.51,7.38A22.1,22.1,0,0,0,246,52.42a21,21,0,0,0,2,11.14A17.68,17.68,0,0,0,254.92,71a18.85,18.85,0,0,0,9.74,2.63,17,17,0,0,0,9.79-2.69A21.1,21.1,0,0,0,280.91,64l8.4,4.31A21.35,21.35,0,0,1,284,75.61a27.42,27.42,0,0,1-8.56,5.22A29.39,29.39,0,0,1,264.55,82.77Z"/><path class="cls-1" d="M320.2,82.77a21.86,21.86,0,0,1-11.3-2.91,20.22,20.22,0,0,1-7.75-8.12,25,25,0,0,1-2.8-12V23.46h10.11v35.2a15.48,15.48,0,0,0,1.78,7.54,12.92,12.92,0,0,0,4.95,5,15.34,15.34,0,0,0,14.53,0A12.5,12.5,0,0,0,334.67,66a17.57,17.57,0,0,0,1.78-8.18V23.46h10.12v58h-9.8V70.18l1.51,1a16.72,16.72,0,0,1-6.89,8.55A20.43,20.43,0,0,1,320.2,82.77Z"/><path class="cls-2" d="M356.47,81.48V0h14.21V34.44l-1.94-2a15.42,15.42,0,0,1,6.73-8,21.19,21.19,0,0,1,10.92-2.74,23.1,23.1,0,0,1,11.46,2.79,20,20,0,0,1,7.81,7.81,23.34,23.34,0,0,1,2.8,11.57V81.48h-14.1V47.14a14,14,0,0,0-1.51-6.67,10.62,10.62,0,0,0-4.15-4.3,13.32,13.32,0,0,0-12.32,0,10.55,10.55,0,0,0-4.2,4.3,14,14,0,0,0-1.5,6.67V81.48Z"/><path class="cls-2" d="M444.62,82.77a31.08,31.08,0,0,1-15.55-4,30.63,30.63,0,0,1-11.25-10.87,29.58,29.58,0,0,1-4.2-15.72,29.57,29.57,0,0,1,4.2-15.71,30.76,30.76,0,0,1,26.8-14.85,31.12,31.12,0,0,1,15.71,4,30.32,30.32,0,0,1,11.14,10.81,29.77,29.77,0,0,1,4.15,15.77,29.58,29.58,0,0,1-4.2,15.72,30.76,30.76,0,0,1-26.8,14.85Zm0-12.92a15.56,15.56,0,0,0,8.45-2.26,15.88,15.88,0,0,0,5.7-6.29,19.41,19.41,0,0,0,2.1-9.1,19.1,19.1,0,0,0-2.1-9,16.08,16.08,0,0,0-5.7-6.24,16.83,16.83,0,0,0-16.85,0,15.83,15.83,0,0,0-5.75,6.24,19.1,19.1,0,0,0-2.1,9,19.41,19.41,0,0,0,2.1,9.1,15.38,15.38,0,0,0,14.15,8.55Z"/><path class="cls-2" d="M481.86,81.48V22.93h13.35V36.49l-1.51-2.15a15.23,15.23,0,0,1,6.46-9.58,20.6,20.6,0,0,1,11.41-3.12,21.92,21.92,0,0,1,12.7,3.76,16.92,16.92,0,0,1,7.1,9.9l-4,.33a21,21,0,0,1,8.07-10.5,23.67,23.67,0,0,1,23.52-.7,20.21,20.21,0,0,1,7.7,7.81,23.34,23.34,0,0,1,2.79,11.57V81.48h-14.1V47.14A14.82,14.82,0,0,0,554,40.47a10.19,10.19,0,0,0-3.93-4.3,12.48,12.48,0,0,0-11.9,0,10,10,0,0,0-4,4.3,14.82,14.82,0,0,0-1.4,6.67V81.48h-14.1V47.14a14.82,14.82,0,0,0-1.4-6.67,10.07,10.07,0,0,0-3.93-4.3,12.46,12.46,0,0,0-11.89,0,10,10,0,0,0-4,4.3,14.68,14.68,0,0,0-1.4,6.67V81.48Z"/><path class="cls-2" d="M77.52,90a9.12,9.12,0,0,1-9.09-8l-6.77-56.5a9.12,9.12,0,0,1,18.12-2.17l6.77,56.5a9.14,9.14,0,0,1-8,10.15A9.24,9.24,0,0,1,77.52,90Z"/><path class="cls-3" d="M81.44,93.22a13.12,13.12,0,0,1-9.27-22.39l53.65-53.65a13.12,13.12,0,0,1,18.55,18.55L90.72,89.38A13.08,13.08,0,0,1,81.44,93.22Z"/><path class="cls-1" d="M13.12,91.89A13.12,13.12,0,0,1,3.84,69.5L57.49,15.86A13.12,13.12,0,0,1,76,34.41L22.39,88.05A13.08,13.08,0,0,1,13.12,91.89Z"/></g></g></svg>